<svg xmlns="http://www.w3.org/2000/svg" width="36" height="36" viewBox="0 0 36 36" fill="none">
    <path d="M18 36C27.9411 36 36 27.9411 36 18C36 8.05887 27.9411 0 18 0C8.05887 0 0 8.05887 0 18C0 27.9411 8.05887 36 18 36Z" fill="#FF7B29"/>
    <path d="M14.7379 15.2102H17.0959C17.0618 13.1364 15.3572 11.7045 12.7663 11.7045C10.2152 11.7045 8.34588 13.1136 8.35724 15.2273C8.35156 16.9432 9.56179 17.9261 11.5277 18.3977L12.7947 18.7159C14.0618 19.0227 14.7663 19.3864 14.772 20.1705C14.7663 21.0227 13.9595 21.6023 12.7095 21.6023C11.4311 21.6023 10.5107 21.0114 10.4311 19.8466H8.05043C8.11293 22.3636 9.91406 23.6648 12.7379 23.6648C15.5788 23.6648 17.2493 22.3068 17.255 20.1761C17.2493 18.2386 15.7891 17.2102 13.7663 16.7557L12.7209 16.5057C11.7095 16.2727 10.8629 15.8977 10.88 15.0625C10.88 14.3125 11.5447 13.7614 12.7493 13.7614C13.9254 13.7614 14.647 14.2955 14.7379 15.2102ZM18.4666 13.892H22.0291V23.5H24.4609V13.892H28.0234V11.8636H18.4666V13.892Z" fill="white"/>
    </svg>