<svg xmlns="http://www.w3.org/2000/svg" width="28" height="28" viewBox="0 0 28 28" fill="none">
  <path d="M26.251 14.272C26.251 13.2648 26.1676 12.5298 25.9871 11.7676H14.251V16.3136H21.1398C21.001 17.4434 20.251 19.1448 18.5843 20.2881L18.5609 20.4403L22.2716 23.2574L22.5287 23.2826C24.8898 21.1456 26.251 18.0014 26.251 14.272" fill="#4285F4"/>
  <path d="M14.2506 26.2499C17.6256 26.2499 20.4589 25.161 22.5284 23.2827L18.5839 20.2881C17.5284 21.0095 16.1117 21.5131 14.2506 21.5131C10.9451 21.5131 8.13959 19.3762 7.1395 16.4226L6.99291 16.4348L3.13444 19.3612L3.08398 19.4987C5.13951 23.5004 9.36173 26.2499 14.2506 26.2499Z" fill="#34A853"/>
  <path d="M7.13981 16.4227C6.87592 15.6605 6.7232 14.8438 6.7232 13.9999C6.7232 13.156 6.87592 12.3394 7.12592 11.5771L7.11893 11.4148L3.2121 8.44141L3.08428 8.50099C2.23709 10.1616 1.75098 12.0263 1.75098 13.9999C1.75098 15.9735 2.23709 17.8382 3.08428 19.4988L7.13981 16.4227" fill="#FBBC05"/>
  <path d="M14.2507 6.48663C16.5979 6.48663 18.1812 7.48024 19.084 8.31057L22.6118 4.935C20.4452 2.96139 17.6257 1.75 14.2507 1.75C9.36176 1.75 5.13952 4.49942 3.08398 8.50106L7.12564 11.5772C8.13962 8.6236 10.9452 6.48663 14.2507 6.48663" fill="#EB4335"/>
</svg>